:SAMPLES-PER-SECOND 30
:FULLY-SPECIFIED
:DEGREES
108
root  28.5717 20.7605 3.82629 83.1459 79.8989 102.988
RightUpLeg  -53.5448 -0.730099 -4.30198
RightLeg  121.937 13.3926 -2.46696
RightFoot  -35.0455 0.0180331 0.0360493
RightToes  1.80444e-009 -3.18055e-015 8.94531e-016
Spine  58.5001 0.719021 -4.88455
Spine1  8.95471 -1.0011 -4.84974
HEad  -25.2742 -0.784763 6.4058
LeftShoulder1  0 -2.69403e-036 -1.28585e-037
LeftArm  -5.84382 -51.3558 -71.1493
LeftForeArm  -130.701 -49.9649 168.162
LeftHand  0.0111906 3.95258 16.5099
RightShoulder  -2.48481e-017 0 -8.08114e-019
RightArm  -0.27412 37.1626 75.2547
RightForeArm  -85.7192 46.7293 -153.725
RightHand  3.63623 -15.6983 -24.3404
LeftUpLeg  -67.413 0.881536 2.66496
LeftLeg  119.604 -6.46324 -12.9393
LeftFoot  -14.4402 -0.144844 -11.7651
LeftToes  -1.10049e-010 -1.44524e-010 4.8374e-011
109
root  29.3695 20.333 4.02315 87.8629 79.3723 108.387
RightUpLeg  -51.7159 -1.50631 -3.78258
RightLeg  124.38 14.852 -4.11257
RightFoot  -35.9262 0.292941 1.39172
RightToes  1.80444e-009 -3.18055e-015 8.94531e-016
Spine  58.7492 0.857547 -5.18788
Spine1  9.25526 -0.799002 -5.21722
HEad  -25.139 -0.627412 6.75856
LeftShoulder1  0 -2.69403e-036 -1.28585e-037
LeftArm  -5.96562 -51.2965 -70.2634
LeftForeArm  -130.719 -50.2989 167.907
LeftHand  -0.0355176 3.853 17.0354
RightShoulder  -2.48481e-017 0 -8.08114e-019
RightArm  -0.100046 36.8351 75.2013
RightForeArm  -85.6552 46.7379 -153.709
RightHand  3.63463 -15.6847 -24.3721
LeftUpLeg  -73.4649 1.13207 -3.86474
LeftLeg  112.692 -9.74124 -9.17504
LeftFoot  -15.3953 -0.232472 -10.5836
LeftToes  -1.10049e-010 -1.44524e-010 4.8374e-011
110
root  30.1727 19.6338 4.10413 89.7675 79.0167 111.309
RightUpLeg  -50.1671 -2.30309 -3.30756
RightLeg  127.83 16.2846 -5.19353
RightFoot  -36.2885 0.688477 3.29913
RightToes  1.80444e-009 -3.18055e-015 8.94531e-016
Spine  59.2841 0.855205 -5.0506
Spine1  9.41524 -0.630175 -5.36954
HEad  -24.7764 -0.859071 6.71466
LeftShoulder1  0 -2.69403e-036 -1.28585e-037
LeftArm  -6.51018 -51.2621 -68.9865
LeftForeArm  -131.208 -50.631 167.683
LeftHand  -0.0415917 3.90294 17.6533
RightShoulder  -2.48481e-017 0 -8.08114e-019
RightArm  0.15439 36.7023 75.1634
RightForeArm  -85.6943 46.8121 -153.61
RightHand  3.63933 -15.7059 -24.3467
LeftUpLeg  -77.5549 0.737182 -9.06896
LeftLeg  106.439 -11.2776 -7.05102
LeftFoot  -15.6146 -0.269414 -11.4781
LeftToes  -1.10049e-010 -1.44524e-010 4.8374e-011
111
root  30.9701 18.7805 4.11458 87.4805 78.5453 110.432
RightUpLeg  -48.7108 -2.6751 -3.29275
RightLeg  132.009 17.4774 -5.54794
RightFoot  -35.9634 1.04493 5.117
RightToes  1.80444e-009 -3.18055e-015 8.94531e-016
Spine  60.0366 1.16091 -5.15254
Spine1  10.1039 -0.342209 -5.57012
HEad  -24.7228 -1.12235 6.43828
LeftShoulder1  0 -2.69403e-036 -1.28585e-037
LeftArm  -7.15902 -51.3073 -67.5998
LeftForeArm  -131.527 -50.6616 167.683
LeftHand  -0.019449 4.0127 17.9786
RightShoulder  -2.48481e-017 0 -8.08114e-019
RightArm  0.306258 36.8614 75.2529
RightForeArm  -85.4735 46.915 -153.454
RightHand  3.61717 -15.6408 -24.3393
LeftUpLeg  -79.0095 0.131038 -12.51
LeftLeg  102.07 -12.0508 -5.39503
LeftFoot  -16.8155 -0.399197 -11.7032
LeftToes  -1.10049e-010 -1.44524e-010 4.8374e-011
112
root  31.7627 17.8673 4.04486 82.3723 78.6707 106.208
RightUpLeg  -47.8454 -2.7534 -2.79778
RightLeg  136.326 18.4764 -5.47989
RightFoot  -35.5923 1.29086 6.43943
RightToes  1.80444e-009 -3.18055e-015 8.94531e-016
Spine  60.4201 1.31475 -4.83363
Spine1  11.1539 0.221978 -6.19184
HEad  -25.3826 -1.13193 6.42962
LeftShoulder1  0 -2.69403e-036 -1.28585e-037
LeftArm  -7.78212 -51.4612 -66.3652
LeftForeArm  -131.162 -50.4812 167.797
LeftHand  -0.0373485 3.96589 18.0918
RightShoulder  -2.48481e-017 0 -8.08114e-019
RightArm  0.389345 37.0176 75.5338
RightForeArm  -85.14 46.8517 -153.52
RightHand  3.56963 -15.5125 -24.2796
LeftUpLeg  -79.3874 -0.771241 -13.6805
LeftLeg  100.135 -12.6562 -2.93434
LeftFoot  -16.9821 -0.35954 -10.1962
LeftToes  -1.10049e-010 -1.44524e-010 4.8374e-011
113
root  32.6457 16.923 3.86336 73.6645 79.8227 97.3033
RightUpLeg  -47.1853 -2.54514 -1.48112
RightLeg  140.665 18.7943 -4.76325
RightFoot  -36.0651 1.52355 7.44109
RightToes  1.80444e-009 -3.18055e-015 8.94531e-016
Spine  60.2589 0.826836 -3.29501
Spine1  11.8453 1.03025 -7.45089
HEad  -26.7424 -0.831783 6.43913
LeftShoulder1  0 -2.69403e-036 -1.28585e-037
LeftArm  -8.92234 -51.6729 -65.0733
LeftForeArm  -130.914 -50.2938 167.925
LeftHand  -0.0793748 3.85161 18.3064
RightShoulder  -2.48481e-017 0 -8.08114e-019
RightArm  0.79506 37.2632 75.8899
RightForeArm  -85.0818 46.6309 -153.819
RightHand  3.5495 -15.4942 -24.12
LeftUpLeg  -80.7374 -1.66306 -12.9545
LeftLeg  100.746 -13.3262 0.0757754
LeftFoot  -13.0614 -0.0179991 -7.05729
LeftToes  -1.10049e-010 -1.44524e-010 4.8374e-011
114
root  33.7324 15.9612 3.56312 56.7516 81.6284 78.9333
RightUpLeg  -45.7213 -1.90366 0.0829319
RightLeg  145.126 17.4058 -2.96893
RightFoot  -38.3622 1.78122 7.88105
RightToes  1.80444e-009 -3.18055e-015 8.94531e-016
Spine  59.2197 -0.373279 -0.18769
Spine1  12.0033 1.89954 -9.1319
HEad  -28.9215 -0.420072 5.41711
LeftShoulder1  0 -2.69403e-036 -1.28585e-037
LeftArm  -11.1262 -52.0912 -63.326
LeftForeArm  -131.296 -50.0547 168.137
LeftHand  -0.0766173 3.8883 18.556
RightShoulder  -2.48481e-017 0 -8.08114e-019
RightArm  1.58545 38.4205 75.9712
RightForeArm  -85.1792 46.5278 -153.965
RightHand  3.60024 -15.6665 -24.0569
LeftUpLeg  -84.5519 -2.20606 -10.7947
LeftLeg  103.799 -14.123 2.39291
LeftFoot  -6.55969 0.154982 -3.17146
LeftToes  -1.10049e-010 -1.44524e-010 4.8374e-011
115
root  34.8806 15.1967 3.26291 29.6909 81.2329 49.3307
RightUpLeg  -44.1982 0.64261 1.01384
RightLeg  148.824 14.4254 -0.721035
RightFoot  -41.5882 1.89054 7.39585
RightToes  1.80444e-009 -3.18055e-015 8.94531e-016
Spine  57.7735 -0.725483 2.68597
Spine1  12.1127 3.37674 -10.6763
HEad  -32.2347 -0.220949 3.18078
LeftShoulder1  0 -2.69403e-036 -1.28585e-037
LeftArm  -13.8627 -53.0416 -61.3299
LeftForeArm  -131.045 -49.6297 168.442
LeftHand  -0.0780778 3.89263 18.641
RightShoulder  -2.48481e-017 0 -8.08114e-019
RightArm  2.04966 40.9332 75.4936
RightForeArm  -85.0146 46.6601 -153.775
RightHand  3.67688 -15.8548 -24.2199
LeftUpLeg  -89.8981 -0.929603 -8.0838
LeftLeg  108.073 -14.9079 3.51913
LeftFoot  -2.42887 -0.0428637 0.324275
LeftToes  -1.10049e-010 -1.44524e-010 4.8374e-011
116
root  35.8655 14.8929 3.01783 14.953 80.482 31.62
RightUpLeg  -42.6555 2.40968 0.268844
RightLeg  150.439 10.7535 1.37111
RightFoot  -44.5795 1.84452 6.50041
RightToes  1.80444e-009 -3.18055e-015 8.94531e-016
Spine  57.2539 -1.12209 4.40526
Spine1  11.8854 4.00247 -11.5452
HEad  -36.1732 -0.163322 1.46508
LeftShoulder1  0 -2.69403e-036 -1.28585e-037
LeftArm  -15.6124 -54.5032 -59.8649
LeftForeArm  -129.682 -49.1429 168.707
LeftHand  -0.185092 3.58392 18.9645
RightShoulder  -2.48481e-017 0 -8.08114e-019
RightArm  1.67703 43.795 74.963
RightForeArm  -84.4776 46.8032 -153.544
RightHand  3.70291 -15.8738 -24.4355
LeftUpLeg  -94.1625 -0.76181 -6.23486
LeftLeg  111.229 -15.6585 4.39884
LeftFoot  -2.36943 -0.235876 2.40741
LeftToes  -1.10049e-010 -1.44524e-010 4.8374e-011
117
root  36.6683 15.1444 2.87575 12.143 80.0995 25.8065
RightUpLeg  -42.2851 3.26047 -1.37516
RightLeg  149.796 8.10831 2.82555
RightFoot  -44.8716 1.76076 6.13476
RightToes  1.80444e-009 -3.18055e-015 8.94531e-016
Spine  57.8993 -1.12154 4.16446
Spine1  11.0815 3.9509 -11.9247
HEad  -39.2339 0.197162 1.79505
LeftShoulder1  0 -2.69403e-036 -1.28585e-037
LeftArm  -15.275 -55.8895 -59.7322
LeftForeArm  -130.026 -48.8484 168.948
LeftHand  -0.278 3.44876 20.2736
RightShoulder  -2.48481e-017 0 -8.08114e-019
RightArm  1.20886 45.4482 75.2006
RightForeArm  -83.7496 46.7571 -153.562
RightHand  3.71349 -15.8425 -24.6645
LeftUpLeg  -95.9143 -1.28882 -5.86577
LeftLeg  112.455 -16.3041 5.40958
LeftFoot  -4.88265 -0.226642 2.8456
LeftToes  -1.10049e-010 -1.44524e-010 4.8374e-011
118
root  37.5273 15.7784 2.82301 9.65759 79.1526 19.8123
RightUpLeg  -43.1676 4.40833 -1.9348
RightLeg  147.697 6.86123 3.6879
RightFoot  -43.267 1.61979 5.95872
RightToes  1.80444e-009 -3.18055e-015 8.94531e-016
Spine  57.6617 -0.383028 3.03991
Spine1  10.7496 4.33724 -12.4865
HEad  -40.5907 1.02802 3.36764
LeftShoulder1  0 -2.69403e-036 -1.28585e-037
LeftArm  -14.6259 -56.7511 -59.7288
LeftForeArm  -131.442 -49.283 168.73
LeftHand  -0.304569 3.51123 21.5108
RightShoulder  -2.48481e-017 0 -8.08114e-019
RightArm  1.69836 46.0345 76.5219
RightForeArm  -82.6214 46.6744 -153.606
RightHand  3.82001 -15.9841 -25.2985
LeftUpLeg  -96.5903 -0.799618 -5.542
LeftLeg  112.965 -16.7767 6.20087
LeftFoot  -7.88187 -0.154638 2.71239
LeftToes  -1.10049e-010 -1.44524e-010 4.8374e-011
119
root  38.458 16.7302 2.74971 9.90054 79.7498 18.2026
RightUpLeg  -41.1222 4.01683 -3.20573
RightLeg  144.219 5.4346 5.02031
RightFoot  -42.4876 1.4053 5.30173
RightToes  1.80444e-009 -3.18055e-015 8.94531e-016
Spine  58.3827 -0.362951 1.93303
Spine1  10.6719 3.66112 -12.3836
HEad  -40.4311 1.60116 4.09703
LeftShoulder1  0 -2.69403e-036 -1.28585e-037
LeftArm  -15.4398 -56.9304 -58.7823
LeftForeArm  -132.087 -49.9105 168.307
LeftHand  -0.288066 3.56246 21.528
RightShoulder  -2.48481e-017 0 -8.08114e-019
RightArm  2.92264 46.5939 78.1007
RightForeArm  -81.2683 46.74 -153.434
RightHand  4.02543 -16.2621 -26.4438
LeftUpLeg  -94.2783 -1.97892 -5.69806
LeftLeg  112.48 -17.2095 7.2646
LeftFoot  -10.2589 -0.101375 2.62496
LeftToes  -1.10049e-010 -1.44524e-010 4.8374e-011
120
root  39.4101 17.8932 2.72223 8.61325 79.915 16.4929
RightUpLeg  -38.2275 4.1467 -3.87583
RightLeg  139.769 4.68311 6.27276
RightFoot  -39.6498 1.33755 5.59263
RightToes  1.80444e-009 -3.18055e-015 8.94531e-016
Spine  60.1366 0.558907 0.237986
Spine1  10.8126 3.34258 -11.0163
HEad  -39.5109 1.41596 3.38495
LeftShoulder1  0 -2.69403e-036 -1.28585e-037
LeftArm  -17.4865 -56.5654 -57.1726
LeftForeArm  -131.953 -49.8658 168.33
LeftHand  -0.358664 3.35315 21.538
RightShoulder  -2.48481e-017 0 -8.08114e-019
RightArm  3.95459 47.3849 78.9018
RightForeArm  -81.0416 46.7187 -153.449
RightHand  4.14077 -16.4355 -26.9933
LeftUpLeg  -89.7506 -2.40389 -5.61564
LeftLeg  111.582 -17.407 8.04895
LeftFoot  -12.3713 -0.0556067 2.05389
LeftToes  -1.10049e-010 -1.44524e-010 4.8374e-011
